<svg xmlns="http://www.w3.org/2000/svg" style="transform: none; transform-origin: 50% 50%; cursor: move; max-height: none;" width="204" height="210" viewBox="0 0 2040 2100"><g id="l3KD2mSUznAyrEZgpaXgFDF" fill="rgb(3,145,81)" style="transform: none;"><g><path id="p1FFKdeqnM" d="M868 1860 c-372 -34 -649 -253 -739 -586 -29 -104 -31 -323 -5 -429 40 -163 151 -334 282 -434 162 -122 335 -173 584 -173 351 0 602 115 753 345 67 101 102 187 122 302 27 158 16 307 -34 452 -91 264 -322 455 -611 506 -111 20 -244 26 -352 17z m117 -380 c11 0 50 2 87 6 62 6 71 4 115 -22 79 -46 157 -133 205 -230 41 -84 43 -91 47 -196 5 -156 -27 -230 -123 -281 -62 -33 -181 -30 -258 6 -31 15 -63 27 -71 27 -8 0 -40 -12 -71 -26 -148 -68 -298 -27 -360 98 -22 45 -26 65 -26 144 0 63 6 112 20 156 35 114 127 235 228 299 44 28 52 30 117 25 39 -3 79 -6 90 -6z m21 -727 c-3 -10 -10 -56 -16 -103 -19 -148 -14 -140 -71 -140 -27 0 -49 3 -49 8 0 4 23 62 51 130 41 96 56 122 71 122 14 0 18 -5 14 -17z m138 -46 c38 -29 76 -99 76 -140 0 -30 -7 -32 -65 -16 -77 21 -122 72 -140 158 l-7 34 50 -5 c34 -3 63 -14 86 -31z"></path></g></g></svg>