<?xml version="1.0" standalone="no"?>
<!DOCTYPE svg PUBLIC "-//W3C//DTD SVG 20010904//EN"
 "http://www.w3.org/TR/2001/REC-SVG-20010904/DTD/svg10.dtd">
<svg version="1.0" xmlns="http://www.w3.org/2000/svg"
 width="210.000000pt" height="210.000000pt" viewBox="0 0 210.000000 210.000000"
 preserveAspectRatio="xMidYMid meet">
<metadata>
Created by potrace 1.14, written by Peter Selinger 2001-2017
</metadata>
<g transform="translate(0.000000,210.000000) scale(0.100000,-0.100000)"
fill="#000000" stroke="none">
<path d="M899 1866 c-2 -2 -29 -6 -59 -9 -68 -8 -218 -50 -273 -79 -198 -100
-344 -275 -406 -483 -42 -145 -44 -322 -5 -478 67 -265 292 -483 569 -552 102
-25 106 -26 265 -30 196 -5 330 18 467 80 246 113 397 313 448 595 13 66 7
254 -9 332 -67 315 -290 532 -621 603 -71 16 -364 32 -376 21z m102 -293 c2
-27 7 -69 13 -106 19 -108 19 -137 2 -137 -9 0 -16 5 -16 11 0 5 -9 31 -21 57
-12 26 -28 63 -36 82 -8 19 -21 50 -29 68 -8 18 -14 35 -14 37 0 3 23 5 50 5
41 0 50 -3 51 -17z m244 -49 c-13 -82 -74 -149 -145 -161 -55 -8 -61 -1 -45
54 10 32 29 61 57 88 23 22 42 39 42 37 1 -2 8 -1 16 2 71 23 82 20 75 -20z
m-335 -177 c30 -11 61 -24 68 -30 15 -12 95 -2 100 12 2 6 11 11 21 11 9 0 22
5 28 11 12 12 133 17 168 8 34 -9 88 -40 107 -63 11 -11 30 -43 43 -71 45 -92
30 -261 -33 -374 -54 -98 -137 -182 -221 -225 -25 -14 -47 -16 -90 -12 -70 8
-102 8 -172 0 -74 -8 -122 16 -209 105 -109 110 -162 238 -159 384 5 204 159
312 349 244z"/>
</g>
</svg>
